<svg width="75" height="14" viewBox="0 0 75 14" fill="none" xmlns="http://www.w3.org/2000/svg">
<path d="M5.61539 13.9809C4.57692 13.9809 3.57692 13.8078 2.59615 13.4617C1.61539 13.1155 0.75 12.6348 0 12.0002L1 10.5771C1.53846 11.0963 2.23077 11.5002 3.05769 11.7886C3.88462 12.0963 4.75 12.2502 5.61539 12.2502C6.69231 12.2502 7.55769 12.0386 8.19231 11.6348C8.82693 11.2309 9.15385 10.7117 9.15385 10.0386C9.15385 9.42323 8.86539 8.94246 8.28846 8.57707C7.71154 8.23092 6.76923 7.96169 5.48077 7.76938C3.65385 7.50015 2.32692 7.05784 1.51923 6.42323C0.711539 5.78861 0.307692 4.904 0.307692 3.75015C0.307692 3.03861 0.519231 2.38476 0.961539 1.82707C1.40385 1.26938 2 0.827071 2.78846 0.500148C3.57692 0.173224 4.46154 0.0193787 5.44231 0.0193787C6.34616 0.0193787 7.23077 0.173225 8.09616 0.461686C8.94231 0.769379 9.71154 1.19246 10.3846 1.75015L9.40385 3.07707C8.86539 2.63476 8.25 2.28861 7.55769 2.03861C6.86539 1.78861 6.17308 1.67323 5.46154 1.67323C4.5 1.67323 3.71154 1.86553 3.09615 2.26938C2.48077 2.67323 2.17308 3.17323 2.17308 3.78861C2.17308 4.38476 2.44231 4.86553 3 5.21169C3.53846 5.55784 4.42308 5.82707 5.67308 6.03861C6.98077 6.25015 8.01923 6.50015 8.80769 6.82707C9.57693 7.17323 10.1346 7.57707 10.5 8.07707C10.8654 8.5963 11.0385 9.23092 11.0385 9.98092C11.0385 10.7694 10.8077 11.4809 10.3654 12.0771C9.92308 12.6925 9.28846 13.1732 8.48077 13.4809C7.65385 13.8271 6.71154 13.9809 5.61539 13.9809Z" fill="black"/>
<path d="M16.3848 0.269032H22.5194C23.4809 0.269032 24.3271 0.461339 25.0386 0.845954C25.7502 1.23057 26.3078 1.76903 26.7117 2.46134C27.0963 3.17288 27.2886 3.98057 27.2886 4.88442C27.2886 5.80749 27.0963 6.61519 26.7117 7.30749C26.3078 8.01903 25.7502 8.55749 25.0386 8.94211C24.3271 9.32673 23.4809 9.51903 22.5194 9.51903H18.2502V13.7306H16.3848V0.269032ZM22.4232 7.78826C23.3463 7.78826 24.0771 7.51903 24.6348 6.98057C25.1732 6.46134 25.4425 5.7498 25.4425 4.88442C25.4425 4.01903 25.1732 3.30749 24.6348 2.78826C24.0771 2.26903 23.3463 1.9998 22.4232 1.9998H18.2502V7.78826H22.4232Z" fill="black"/>
<path d="M54.7119 14C53.3465 14 52.1542 13.6923 51.0965 13.0962C50.0388 12.5 49.2119 11.6731 48.6158 10.6154C48.0196 9.55769 47.7119 8.34615 47.7119 7C47.7119 5.65385 48.0196 4.44231 48.6158 3.38462C49.2119 2.32692 50.0388 1.5 51.0965 0.884615C52.1542 0.288462 53.3465 0 54.7119 0C55.6735 0 56.5773 0.173077 57.4235 0.519231C58.2504 0.884616 59.0004 1.40385 59.6735 2.07692L58.385 3.23077C57.4427 2.25 56.2311 1.75 54.7696 1.75C53.7504 1.75 52.8658 1.96154 52.0773 2.40385C51.2888 2.84615 50.6927 3.48077 50.2504 4.26923C49.8081 5.05769 49.5965 5.98077 49.5965 7C49.5965 8.01923 49.8081 8.94231 50.2504 9.73077C50.6927 10.5192 51.2888 11.1538 52.0773 11.5769C52.8658 12.0192 53.7504 12.25 54.7696 12.25C55.4811 12.25 56.1542 12.1154 56.8081 11.8462C57.4619 11.5962 58.0388 11.2308 58.5196 10.75L59.7504 12C58.385 13.3269 56.7119 14 54.7119 14Z" fill="black"/>
<path d="M64.9805 0.269032H74.7305V1.9998H66.8459V6.05749H74.3843V7.76903H66.8459V11.9806H74.8459V13.7306H64.9805V0.269032Z" fill="black"/>
<path fill-rule="evenodd" clip-rule="evenodd" d="M30.04 13.7299H32.0785L37.136 2.21062L42.1938 13.7299H44.2323L38.1939 0.268463H36.0784L30.04 13.7299Z" fill="black"/>
</svg>
