<svg width="142" height="12" viewBox="0 0 142 12" fill="none" xmlns="http://www.w3.org/2000/svg">
<g clip-path="url(#clip0_10_174)">
<path d="M4.8087 11.9777C3.9191 11.9777 3.06246 11.8294 2.22228 11.5329C1.38211 11.2364 0.640777 10.8245 -0.00170898 10.2809L0.854939 9.0618C1.31621 9.5066 1.90928 9.85256 2.61766 10.0997C3.32604 10.3632 4.06737 10.495 4.8087 10.495C5.73124 10.495 6.47257 10.3138 7.01622 9.96787C7.55986 9.62192 7.83992 9.17712 7.83992 8.60053C7.83992 8.07336 7.59281 7.66151 7.09859 7.34851C6.60437 7.05198 5.79714 6.82134 4.69338 6.6566C3.12835 6.42596 1.99165 6.04706 1.29974 5.50342C0.607829 4.95978 0.261875 4.20197 0.261875 3.21353C0.261875 2.604 0.443089 2.04388 0.821991 1.56613C1.20089 1.08839 1.71159 0.709486 2.38702 0.429428C3.06246 0.14937 3.82026 0.0175781 4.66043 0.0175781C5.43471 0.0175781 6.19252 0.14937 6.93385 0.39648C7.6587 0.660064 8.31766 1.02249 8.89425 1.50024L8.05408 2.63694C7.5928 2.25804 7.06564 1.96151 6.47257 1.74735C5.87951 1.53319 5.28645 1.43434 4.67691 1.43434C3.85321 1.43434 3.17777 1.59908 2.65061 1.94504C2.12344 2.29099 1.85985 2.71931 1.85985 3.24648C1.85985 3.75718 2.09049 4.16903 2.56824 4.46556C3.02951 4.76209 3.78731 4.99273 4.85812 5.17394C5.97835 5.35515 6.86795 5.56932 7.54338 5.84937C8.20234 6.14591 8.68009 6.49186 8.9931 6.92018C9.3061 7.36498 9.45437 7.90862 9.45437 8.55111C9.45437 9.22654 9.25668 9.83608 8.87778 10.3468C8.49887 10.8739 7.95523 11.2858 7.26333 11.5494C6.55494 11.8459 5.74772 11.9777 4.8087 11.9777Z" fill="white"/>
<path d="M14.0341 0.231445H19.2893C20.113 0.231445 20.8379 0.396185 21.4474 0.725665C22.057 1.05514 22.5347 1.51642 22.8807 2.10948C23.2102 2.71902 23.3749 3.41093 23.3749 4.18521C23.3749 4.97596 23.2102 5.66787 22.8807 6.26093C22.5347 6.87047 22.057 7.33174 21.4474 7.66122C20.8379 7.9907 20.113 8.15544 19.2893 8.15544H15.6321V11.7632H14.0341V0.231445ZM19.207 6.67278C19.9977 6.67278 20.6237 6.44214 21.1015 5.98087C21.5628 5.53607 21.7934 4.92654 21.7934 4.18521C21.7934 3.44388 21.5628 2.83434 21.1015 2.38954C20.6237 1.94474 19.9977 1.71411 19.207 1.71411H15.6321V6.67278H19.207Z" fill="white"/>
<path d="M46.8668 11.994C45.6972 11.994 44.6758 11.7305 43.7697 11.2198C42.8636 10.7091 42.1552 10.0007 41.6445 9.09462C41.1339 8.18855 40.8703 7.15069 40.8703 5.99751C40.8703 4.84433 41.1339 3.80647 41.6445 2.9004C42.1552 1.99433 42.8636 1.28595 43.7697 0.75878C44.6758 0.248087 45.6972 0.000976562 46.8668 0.000976562C47.6905 0.000976562 48.4648 0.149243 49.1896 0.445775C49.898 0.758781 50.5405 1.20358 51.1171 1.78017L50.0133 2.76861C49.2061 1.92843 48.1683 1.50011 46.9162 1.50011C46.0431 1.50011 45.2853 1.68132 44.6099 2.06023C43.9344 2.43913 43.4237 2.98277 43.0448 3.6582C42.6659 4.33364 42.4847 5.12439 42.4847 5.99751C42.4847 6.87063 42.6659 7.66139 43.0448 8.33682C43.4237 9.01225 43.9344 9.55589 44.6099 9.91832C45.2853 10.2972 46.0431 10.4949 46.9162 10.4949C47.5258 10.4949 48.1024 10.3796 48.6625 10.149C49.2226 9.9348 49.7168 9.62179 50.1287 9.20994L51.183 10.2808C50.0133 11.4175 48.5801 11.994 46.8668 11.994Z" fill="white"/>
<path d="M55.6639 0.231445H64.0163V1.71411H57.2619V5.19012H63.7197V6.65631H57.2619V10.2641H64.1151V11.7632H55.6639V0.231445Z" fill="white"/>
<path d="M75.6304 0.231445H77.2284V5.1407H83.7027V0.231445H85.3007V11.7632H83.7027V6.63983H77.2284V11.7632H75.6304V0.231445Z" fill="white"/>
<path d="M103.356 0.231445H105.069L107.195 5.43723L109.007 9.91816L112.928 0.231445H114.641L109.88 11.7632H108.134L103.356 0.231445Z" fill="white"/>
<path d="M118.858 0.231445H127.211V1.71411H120.456V5.19012H126.914V6.65631H120.456V10.2641H127.309V11.7632H118.858V0.231445Z" fill="white"/>
<path d="M132.202 0.231445H133.668L140.291 9.01209V0.231445H141.889V11.7632H140.423L133.8 2.96613V11.7632H132.202V0.231445Z" fill="white"/>
<path fill-rule="evenodd" clip-rule="evenodd" d="M89.4536 11.7627H91.1999L95.5326 1.8947L99.8651 11.7627H101.611L96.4386 0.230957H94.6264L89.4536 11.7627Z" fill="white"/>
<path fill-rule="evenodd" clip-rule="evenodd" d="M25.7324 11.7627H27.4786L31.8111 1.8947L36.1439 11.7627H37.8901L32.7174 0.230957H30.9051L25.7324 11.7627Z" fill="white"/>
</g>
<defs>
<clipPath id="clip0_10_174">
<rect width="141.9" height="12" fill="white"/>
</clipPath>
</defs>
</svg>
